HIERARCHY
ROOT Hips
{
	OFFSET 0.000000 0.000000 0.000000
	CHANNELS 6 Xposition Yposition Zposition Zrotation Yrotation Xrotation 
	JOINT LowerBack
	{
		OFFSET 0.000000 0.000000 0.000000
		CHANNELS 3 Zrotation Yrotation Xrotation
		JOINT Spine
		{
			OFFSET 0.028270 2.035590 -0.193380
			CHANNELS 3 Zrotation Yrotation Xrotation
			JOINT Spine1
			{
				OFFSET 0.056720 2.048850 -0.042750
				CHANNELS 3 Zrotation Yrotation Xrotation
				JOINT Neck
				{
					OFFSET 0.000000 0.000000 0.000000
					CHANNELS 3 Zrotation Yrotation Xrotation
					JOINT Neck1
					{
						OFFSET -0.054170 1.746240 0.172020
						CHANNELS 3 Zrotation Yrotation Xrotation
						JOINT Head
						{
							OFFSET 0.104070 1.761360 -0.123970
							CHANNELS 3 Zrotation Yrotation Xrotation
							End Site
							{
								OFFSET 0.000000 0.000000 0.000000
							}
						}
					}
				}
				JOINT LeftShoulder
				{
					OFFSET 0.000000 0.000000 0.000000
					CHANNELS 3 Zrotation Yrotation Xrotation
					JOINT LeftArm
					{
						OFFSET 3.362410 1.200890 -0.311210
						CHANNELS 3 Zrotation Yrotation Xrotation
						JOINT LeftForeArm
						{
							OFFSET 4.983000 -0.000000 -0.000000
							CHANNELS 3 Zrotation Yrotation Xrotation
							JOINT LeftHand
							{
								OFFSET 3.483560 -0.000000 -0.000000
								CHANNELS 3 Zrotation Yrotation Xrotation
								JOINT LeftFingerBase
								{
									OFFSET 0.000000 0.000000 0.000000
									CHANNELS 3 Zrotation Yrotation Xrotation
									JOINT LeftHandIndex1
									{
										OFFSET 0.715260 -0.000000 -0.000000
										CHANNELS 3 Zrotation Yrotation Xrotation
										End Site
										{
											OFFSET 0.000000 0.000000 0.000000
										}
									}
								}
								JOINT LThumb
								{
									OFFSET 0.000000 0.000000 0.000000
									CHANNELS 3 Zrotation Yrotation Xrotation
									End Site
									{
										OFFSET 0.000000 0.000000 0.000000
									}
								}
							}
						}
					}
				}
				JOINT RightShoulder
				{
					OFFSET 0.000000 0.000000 0.000000
					CHANNELS 3 Zrotation Yrotation Xrotation
					JOINT RightArm
					{
						OFFSET -3.136600 1.374050 -0.404650
						CHANNELS 3 Zrotation Yrotation Xrotation
						JOINT RightForeArm
						{
							OFFSET -5.241900 -0.000000 -0.000000
							CHANNELS 3 Zrotation Yrotation Xrotation
							JOINT RightHand
							{
								OFFSET -3.444170 -0.000000 -0.000000
								CHANNELS 3 Zrotation Yrotation Xrotation
								JOINT RightFingerBase
								{
									OFFSET 0.000000 0.000000 0.000000
									CHANNELS 3 Zrotation Yrotation Xrotation
									JOINT RightHandIndex1
									{
										OFFSET -0.622530 -0.000000 -0.000000
										CHANNELS 3 Zrotation Yrotation Xrotation
										End Site
										{
											OFFSET 0.000000 0.000000 0.000000
										}
									}
								}
								JOINT RThumb
								{
									OFFSET 0.000000 0.000000 0.000000
									CHANNELS 3 Zrotation Yrotation Xrotation
									End Site
									{
										OFFSET 0.000000 0.000000 0.000000
									}
								}
							}
						}
					}
				}
			}
		}
	}
}
}
MOTION
Frames: 9
Frame Time: 0.008333
1.328358 17.293970 1.209305 8.079908 -51.993611 5.887900 -5.784329 0.710934 -8.513891 -0.884240 1.457087 -4.829070 -0.342335 1.480282 -2.941473 -4.349602 -2.490385 -2.534711 -1.557520 -0.197145 1.456780 0.000000 0.000000 0.000000 6.691488 -1.253266 -6.149881 -96.000293 -31.815842 41.836644 178.515608 -58.491069 179.693227 14.211277 -36.243939 -5.039887 -0.145284 2.043936 -0.000000 0.000000 0.000000 0.000000 0.000000 0.000000 0.000000 -9.605949 2.028029 5.368639 -4.236144 58.287878 -56.875056 -0.862802 3.883583 -0.009263 2.093812 -24.003383 -0.450407 0.001142 0.280017 0.000000 0.000000 0.000000 0.000000 0.000000 0.000000 0.000000 
1.319380 17.294770 1.210210 8.058167 -52.371708 5.778059 -5.810955 0.645234 -8.443400 -0.918620 1.382473 -4.905066 -0.521622 1.421204 -3.328715 -3.919489 -2.263845 -2.150722 -1.554286 -0.203487 1.568154 0.000000 0.000000 0.000000 6.719792 -1.481332 -5.924230 -95.683123 -31.118821 41.137274 178.543816 -58.404625 179.692770 14.292407 -36.138666 -5.055593 -0.150527 2.049283 -0.000000 0.000000 0.000000 0.000000 0.000000 0.000000 0.000000 -9.673426 2.397095 4.507005 1.800583 58.413089 -50.106006 -1.239852 8.078397 -0.000369 1.575513 -20.326062 -0.286519 -0.010347 0.167091 0.000000 0.000000 0.000000 0.000000 0.000000 0.000000 0.000000 
1.311359 17.296021 1.211642 8.027027 -52.822362 5.657505 -5.831564 0.581015 -8.367224 -0.959238 1.304763 -4.990041 -0.737883 1.357940 -3.753955 -3.364980 -1.821803 -1.686716 -1.613179 -0.214702 1.699217 0.000000 0.000000 0.000000 6.767325 -1.701711 -5.682209 -95.337636 -30.389105 40.441539 178.577252 -58.301398 179.692030 14.449074 -36.077794 -5.105550 -0.159141 2.057645 -0.000000 0.000000 0.000000 0.000000 0.000000 0.000000 0.000000 -9.286337 2.866736 3.650252 7.201794 58.087541 -43.275958 -1.683395 12.358506 0.002166 0.135072 -15.718044 -0.019652 -0.007832 0.020859 -0.000000 0.000000 0.000000 0.000000 0.000000 0.000000 0.000000 
1.304076 17.297539 1.213490 7.988426 -53.347057 5.524905 -5.845527 0.510210 -8.297328 -0.996565 1.218120 -5.075592 -0.948777 1.282474 -4.167402 -2.742262 -1.248899 -1.172870 -1.712425 -0.228784 1.841650 0.000000 0.000000 0.000000 6.801159 -1.873428 -5.434628 -94.969476 -29.660571 39.763737 178.608209 -58.182147 179.690791 14.677740 -36.061028 -5.188282 -0.170393 2.068070 -0.000000 0.000000 0.000000 0.000000 0.000000 0.000000 0.000000 -8.567823 3.349810 2.840759 11.867074 57.550719 -37.427551 -2.144157 16.604720 -0.007024 -2.149962 -10.805438 0.201440 0.009205 -0.140606 -0.000000 0.000000 0.000000 0.000000 0.000000 0.000000 0.000000 
1.297234 17.299120 1.215655 7.946070 -53.936367 5.383641 -5.850746 0.433265 -8.242146 -1.027558 1.124105 -5.154749 -1.141562 1.195729 -4.530910 -2.088645 -0.645396 -0.645642 -1.837145 -0.244169 1.985678 0.000000 0.000000 0.000000 6.811201 -1.973054 -5.193238 -94.588684 -28.970592 39.127003 178.636621 -58.057584 179.689252 14.957204 -36.087269 -5.296203 -0.183461 2.079865 -0.000000 0.000000 0.000000 0.000000 0.000000 0.000000 0.000000 -7.621139 3.764422 2.104141 15.955798 56.965207 -32.778720 -2.551691 20.824590 -0.027892 -4.799751 -6.196881 0.249101 0.030705 -0.293050 -0.000000 0.000000 0.000000 0.000000 0.000000 0.000000 0.000000 
1.290563 17.300527 1.217857 7.906370 -54.574634 5.227491 -5.853783 0.356713 -8.197432 -1.054632 1.030179 -5.222087 -1.320524 1.105228 -4.825934 -1.417210 -0.083582 -0.135002 -1.981351 -0.260001 2.123241 0.000000 0.000000 0.000000 6.816840 -2.008025 -4.969401 -94.214635 -28.340895 38.545947 178.662507 -57.941223 179.687596 15.263040 -36.149408 -5.419526 -0.197379 2.092310 -0.000000 0.000000 0.000000 0.000000 0.000000 0.000000 0.000000 -6.498307 4.070125 1.460803 19.630668 56.355947 -29.108481 -2.851356 25.111908 -0.055785 -7.369678 -2.284522 0.120838 0.047043 -0.419623 -0.000000 0.000000 0.000000 0.000000 0.000000 0.000000 0.000000 
1.283772 17.301540 1.219943 7.875443 -55.243306 5.057178 -5.856602 0.288676 -8.160217 -1.080097 0.944807 -5.274397 -1.492895 1.019859 -5.044812 -0.749508 0.371518 0.328459 -2.137975 -0.275434 2.246390 0.000000 0.000000 0.000000 6.830744 -1.983168 -4.769717 -93.862594 -27.792716 38.039013 178.690113 -57.847939 179.686209 15.564825 -36.240101 -5.546461 -0.211239 2.104797 -0.000000 0.000000 0.000000 0.000000 0.000000 0.000000 0.000000 -5.274043 4.239974 0.912838 23.060630 55.719188 -26.168956 -3.026750 29.515921 -0.084841 -9.589485 0.747200 -0.106368 0.053872 -0.514001 -0.000000 0.000000 0.000000 0.000000 0.000000 0.000000 0.000000 
1.276448 17.302025 1.222055 7.853322 -55.919642 4.891354 -5.860781 0.232334 -8.141417 -1.105624 0.871617 -5.312414 -1.665491 0.943841 -5.187907 -0.098525 0.681695 0.723012 -2.302877 -0.289982 2.349631 0.000000 0.000000 0.000000 6.868553 -1.906449 -4.596573 -93.548427 -27.334392 37.616945 178.723391 -57.789474 179.685510 15.823753 -36.352400 -5.661709 -0.223854 2.116942 -0.000000 0.000000 0.000000 0.000000 0.000000 0.000000 0.000000 -4.000544 4.265412 0.454610 26.333103 55.039549 -23.732534 -3.078044 34.035786 -0.110927 -11.354629 2.948253 -0.352345 0.051810 -0.579477 -0.000000 0.000000 0.000000 0.000000 0.000000 0.000000 0.000000 
1.268241 17.301852 1.224042 7.846512 -56.585959 4.727987 -5.873434 0.187835 -8.139103 -1.133344 0.811462 -5.337149 -1.841901 0.878754 -5.265126 0.531791 0.848544 1.040957 -2.472838 -0.303439 2.431110 0.000000 0.000000 0.000000 6.948298 -1.792642 -4.449319 -93.282533 -26.959713 37.272835 178.762081 -57.772731 179.685608 16.014747 -36.474616 -5.754178 -0.234189 2.128223 -0.000000 0.000000 0.000000 0.000000 0.000000 0.000000 0.000000 -2.711621 4.169542 0.080437 29.481890 54.283476 -21.635332 -3.013783 38.657964 -0.131862 -12.660224 4.404872 -0.559811 0.043706 -0.621684 0.000000 0.000000 0.000000 0.000000 0.000000 0.000000 0.000000 
